<svg width="20.000000" height="20.000000" viewBox="0 0 20 20" fill="none" xmlns="http://www.w3.org/2000/svg" xmlns:xlink="http://www.w3.org/1999/xlink">
	<desc>
			Created with Pixso.
	</desc>
	<defs/>
	<path id="Vector" d="M6.5 2.5L13.5 2.5C14.56 2.5 15.57 2.92 16.32 3.67C17.07 4.42 17.5 5.43 17.5 6.5L17.5 13.5C17.5 14.56 17.07 15.57 16.32 16.32C15.57 17.07 14.56 17.5 13.5 17.5L6.5 17.5C5.43 17.5 4.42 17.07 3.67 16.32C2.92 15.57 2.5 14.56 2.5 13.5L2.5 6.5C2.5 5.43 2.92 4.42 3.67 3.67C4.42 2.92 5.43 2.5 6.5 2.5ZM6.5 4.5L13.5 4.5C14.03 4.5 14.53 4.71 14.91 5.08C15.28 5.46 15.5 5.96 15.5 6.5L15.5 13.5C15.5 14.03 15.28 14.53 14.91 14.91C14.53 15.28 14.03 15.5 13.5 15.5L6.5 15.5C5.96 15.5 5.46 15.28 5.08 14.91C4.71 14.53 4.5 14.03 4.5 13.5L4.5 6.5C4.5 5.96 4.71 5.46 5.08 5.08C5.46 4.71 5.96 4.5 6.5 4.5ZM10 6.5C10.69 6.5 11.36 6.7 11.94 7.08C12.52 7.47 12.96 8.02 13.23 8.66C13.49 9.3 13.56 10 13.43 10.68C13.29 11.36 12.96 11.98 12.47 12.47C11.98 12.96 11.36 13.29 10.68 13.43C10 13.56 9.3 13.49 8.66 13.23C8.02 12.96 7.47 12.52 7.08 11.94C6.7 11.36 6.5 10.69 6.5 10C6.5 9.07 6.86 8.18 7.52 7.52C8.18 6.86 9.07 6.5 10 6.5ZM10 8.5C10.29 8.5 10.58 8.58 10.83 8.75C11.08 8.91 11.27 9.15 11.38 9.42C11.49 9.7 11.52 10 11.47 10.29C11.41 10.58 11.27 10.85 11.06 11.06C10.85 11.27 10.58 11.41 10.29 11.47C10 11.52 9.7 11.49 9.42 11.38C9.15 11.27 8.91 11.08 8.75 10.83C8.58 10.58 8.5 10.29 8.5 10C8.5 9.6 8.65 9.22 8.93 8.93C9.22 8.65 9.6 8.5 10 8.5Z" fill="#FBFBFD" fill-opacity="1.000000" fill-rule="evenodd"/>
</svg>
