<svg width="8.000000" height="14.000000" viewBox="0 0 8 14" fill="none" xmlns="http://www.w3.org/2000/svg" xmlns:xlink="http://www.w3.org/1999/xlink">
	<desc>
			Created with Pixso.
	</desc>
	<defs/>
	<path id="Vector" d="M4.34 9.19C4.37 9.18 4.4 9.18 4.43 9.17C4.57 9.15 4.7 9.12 4.79 9.13C4.98 9.16 5.27 9.54 5.52 10C5.8 10.49 6 10.94 5.99 11.23C5.98 11.52 5.52 11.99 5.27 11.99C5.02 12 4.84 11.99 4.38 11.95C3.91 11.9 3.24 11.45 3.05 11.14C3.01 11.08 2.97 11.02 2.93 10.95C2.79 10.72 2.67 10.48 2.5 10C2.38 9.64 2.27 9.27 2.2 8.9C2.14 8.64 2.1 8.37 2.06 8.11C2.02 7.74 2 7.37 2 6.99C2 6.62 2.02 6.25 2.06 5.88C2.09 5.63 2.14 5.37 2.19 5.12C2.27 4.74 2.37 4.36 2.5 3.99C2.67 3.53 2.78 3.27 2.92 3.05C2.96 2.98 3 2.91 3.05 2.84C3.24 2.55 3.88 2.09 4.38 2.04C4.82 2 5.01 2 5.2 2C5.22 2 5.25 2 5.27 2C5.5 1.99 5.99 2.46 5.99 2.76C6 3.06 5.8 3.5 5.52 3.99C5.27 4.45 5.03 4.83 4.79 4.86C4.67 4.87 4.5 4.84 4.34 4.81L4.34 4.81C4.18 4.79 4.04 4.76 3.97 4.78C3.82 4.82 3.54 4.93 3.49 5.3C3.49 5.32 3.49 5.34 3.48 5.36C3.44 5.68 3.43 5.74 3.41 5.99C3.38 6.33 3.37 6.66 3.37 6.99C3.37 7.33 3.38 7.66 3.41 8L3.41 8.01C3.43 8.26 3.44 8.37 3.49 8.69C3.54 9 3.74 9.17 3.97 9.21C4.08 9.22 4.21 9.21 4.34 9.19ZM5.37 6.77C6.14 6.56 6.59 5.99 6.72 5.82L6.72 5.82C6.95 5.53 7.14 5.2 7.27 4.96C7.43 4.69 7.59 4.37 7.72 4.05C7.84 3.76 8 3.28 7.99 2.74C7.99 2.17 7.77 1.73 7.64 1.5C7.49 1.25 7.31 1.03 7.14 0.86C6.97 0.69 6.76 0.51 6.53 0.37C6.36 0.27 5.89 -0.01 5.24 0C5.22 0 5.2 0 5.18 0C4.96 0 4.71 0 4.18 0.05C3.48 0.12 2.88 0.44 2.52 0.67C2.16 0.9 1.69 1.27 1.38 1.74C1.09 2.18 0.88 2.57 0.61 3.33C0.2 4.51 0 5.76 0 6.99C0 8.23 0.2 9.48 0.61 10.66C0.89 11.44 1.1 11.81 1.35 12.21C1.69 12.74 2.2 13.12 2.55 13.34C2.91 13.56 3.5 13.87 4.17 13.94C4.71 13.99 4.96 14 5.28 13.99C5.89 13.99 6.35 13.74 6.55 13.61C6.8 13.46 7.01 13.28 7.17 13.1C7.34 12.93 7.51 12.71 7.65 12.46C7.78 12.24 7.98 11.82 7.99 11.29C8.01 10.72 7.84 10.22 7.72 9.95C7.59 9.62 7.43 9.3 7.27 9.02C7.11 8.74 6.91 8.42 6.68 8.13C6.57 7.99 6.4 7.81 6.2 7.65C6.06 7.54 5.77 7.33 5.37 7.22C5.37 7.07 5.37 6.92 5.37 6.77Z" fill="#888888" fill-opacity="1.000000" fill-rule="evenodd"/>
</svg>
