<svg width="20.000000" height="20.000000" viewBox="0 0 20 20" fill="none" xmlns="http://www.w3.org/2000/svg" xmlns:xlink="http://www.w3.org/1999/xlink">
	<desc>
			Created with Pixso.
	</desc>
	<defs/>
	<path id="Vector" d="M15.5 9.71L14.5 9.5C13.43 9.5 12.42 9.07 11.67 8.32C10.92 7.57 10.5 6.56 10.5 5.5L10.29 4.5L10.1 2.5L9.89 2.5L9.7 4.5L9.5 5.5C9.5 6.56 9.07 7.57 8.32 8.32C7.57 9.07 6.56 9.5 5.5 9.5L4.5 9.71L2.5 9.89L2.5 6.5C2.5 5.43 2.92 4.42 3.67 3.67C4.42 2.92 5.43 2.5 6.5 2.5L13.5 2.5C14.56 2.5 15.57 2.92 16.32 3.67C17.07 4.42 17.5 5.43 17.5 6.5L17.5 9.9L15.5 9.71ZM4.5 10.28L5.5 10.5C6.56 10.5 7.57 10.92 8.32 11.67C9.07 12.42 9.5 13.43 9.5 14.5L9.7 15.5L9.89 17.5L10.1 17.5L10.29 15.5L10.5 14.5C10.5 13.43 10.92 12.42 11.67 11.67C12.42 10.92 13.43 10.5 14.5 10.5L15.5 10.28L17.5 10.1L17.5 13.5C17.5 14.56 17.07 15.57 16.32 16.32C15.57 17.07 14.56 17.5 13.5 17.5L6.5 17.5C5.43 17.5 4.42 17.07 3.67 16.32C2.92 15.57 2.5 14.56 2.5 13.5L2.5 10.1L4.5 10.28Z" fill="#FBFBFD" fill-opacity="1.000000" fill-rule="evenodd"/>
</svg>
