<svg width="18.000000" height="18.000000" viewBox="0 0 18 18" fill="none" xmlns="http://www.w3.org/2000/svg" xmlns:xlink="http://www.w3.org/1999/xlink">
	<desc>
			Created with Pixso.
	</desc>
	<defs/>
	<path id="Vector" d="M8 0C3.58 0 0 3.58 0 8C0 12.41 3.58 16 8 16C9.84 16 11.55 15.37 12.9 14.31L16.29 17.7C16.68 18.09 17.31 18.09 17.7 17.7C18.09 17.31 18.09 16.68 17.7 16.29L14.31 12.9C15.37 11.55 16 9.84 16 8C16 3.58 12.41 0 8 0ZM2 8C2 4.68 4.68 2 8 2C11.31 2 14 4.68 14 8C14 11.31 11.31 14 8 14C4.68 14 2 11.31 2 8Z" fill="#888888" fill-opacity="1.000000" fill-rule="evenodd"/>
</svg>
