<svg width="20.000000" height="20.000000" viewBox="0 0 20 20" fill="none" xmlns="http://www.w3.org/2000/svg" xmlns:xlink="http://www.w3.org/1999/xlink">
	<desc>
			Created with Pixso.
	</desc>
	<defs/>
	<path id="Vector" d="M10 17.5C8.58 17.49 7.2 17.08 6.01 16.32L2.5 17.5L3.66 13.98C2.78 12.57 2.39 10.91 2.56 9.25C2.72 7.6 3.43 6.04 4.58 4.84C5.72 3.63 7.23 2.84 8.87 2.58C10.51 2.33 12.19 2.63 13.64 3.44C15.09 4.24 16.23 5.51 16.89 7.04C17.54 8.57 17.67 10.27 17.25 11.88C16.84 13.49 15.9 14.92 14.58 15.93C13.27 16.95 11.66 17.5 10 17.5ZM11.63 11.12C12.12 11.28 12.63 11.41 13.15 11.52C13.2 11.53 13.25 11.55 13.3 11.58C13.34 11.6 13.39 11.64 13.42 11.69C13.45 11.73 13.47 11.78 13.48 11.83C13.49 11.89 13.5 11.94 13.49 12L13.49 12.29C13.49 12.39 13.47 12.49 13.43 12.59C13.39 12.68 13.32 12.76 13.25 12.83C13 13.08 12.71 13.28 12.39 13.42C11.91 13.48 11.43 13.44 10.97 13.3C10.51 13.16 10.09 12.93 9.73 12.62C9.26 12.3 8.82 11.94 8.42 11.54C8.02 11.14 7.65 10.7 7.34 10.23C7.03 9.86 6.8 9.44 6.66 8.98C6.53 8.52 6.49 8.04 6.55 7.57C6.69 7.25 6.89 6.96 7.14 6.71C7.2 6.63 7.28 6.57 7.38 6.53C7.47 6.48 7.57 6.47 7.68 6.48L7.97 6.48C8.07 6.46 8.19 6.49 8.27 6.56C8.36 6.62 8.42 6.72 8.43 6.83C8.59 7.42 8.7 7.85 8.85 8.33C8.91 8.53 8.84 8.58 8.68 8.7C8.58 8.78 8.5 8.84 8.42 8.89C8.37 8.92 8.33 8.94 8.29 8.98C8.26 9.02 8.23 9.06 8.22 9.11C8.2 9.16 8.2 9.21 8.2 9.26C8.2 9.31 8.22 9.36 8.25 9.4C8.5 9.9 8.83 10.35 9.22 10.75C9.61 11.13 10.06 11.46 10.56 11.71C10.6 11.74 10.65 11.75 10.7 11.76C10.75 11.76 10.8 11.76 10.85 11.74C10.9 11.73 10.94 11.7 10.98 11.67C11.01 11.63 11.04 11.59 11.07 11.54C11.13 11.46 11.18 11.39 11.26 11.28C11.27 11.25 11.29 11.21 11.31 11.19C11.34 11.16 11.37 11.13 11.4 11.12C11.44 11.1 11.48 11.09 11.51 11.09C11.55 11.09 11.59 11.1 11.63 11.11L11.63 11.12Z" fill="#888888" fill-opacity="1.000000" fill-rule="evenodd"/>
</svg>
