<svg width="20.000000" height="20.000000" viewBox="0 0 20 20" fill="none" xmlns="http://www.w3.org/2000/svg" xmlns:xlink="http://www.w3.org/1999/xlink">
	<desc>
			Created with Pixso.
	</desc>
	<defs/>
	<path id="Vector" d="M14.98 15.04C14.96 15.24 14.88 15.42 14.76 15.58C14.63 15.73 14.46 15.84 14.27 15.9C14.08 15.96 13.87 15.95 13.68 15.89C13.49 15.83 13.33 15.72 13.2 15.56C12.11 14.7 10.42 13.46 10.42 13.46C10.42 13.46 9.19 15.62 8.97 15.84C8.9 15.9 8.81 15.94 8.72 15.97C8.63 15.99 8.54 16 8.44 15.99C8.35 15.98 8.26 15.94 8.18 15.9C8.1 15.85 8.03 15.78 7.97 15.7C7.96 15.67 7.95 15.64 7.93 15.6L8.62 12.17L13.53 7.37L6.83 11.17C6.83 11.17 3.81 10.27 3.36 10.1C3.24 10.03 3.15 9.94 3.08 9.83C3.02 9.71 2.99 9.58 3 9.45C3 9.32 3.05 9.19 3.12 9.08C3.2 8.98 3.31 8.89 3.43 8.84C4.07 8.52 15.34 4.23 15.72 4.12C16.1 4.01 17.1 3.72 16.99 4.69C16.88 5.66 15.09 14.51 14.98 15.04Z" fill="#FBFBFD" fill-opacity="1.000000" fill-rule="evenodd"/>
</svg>
