<svg width="166.000000" height="50.500000" viewBox="0 0 166 50.5" fill="none" xmlns="http://www.w3.org/2000/svg" xmlns:xlink="http://www.w3.org/1999/xlink">
	<desc>
			Created with Pixso.
	</desc>
	<defs>
		<clipPath id="clip2500_21">
			<rect id="tehnoprofi_logo 1" rx="0.000000" width="112.601357" height="47.064068" transform="translate(22.199322 2.199323)" fill="white" fill-opacity="0"/>
		</clipPath>
	</defs>
	<rect id="tehnoprofi_logo 1" rx="0.000000" width="112.601357" height="47.064068" transform="translate(22.199322 2.199323)" fill="#FFFFFF" fill-opacity="0"/>
	<g clip-path="url(#clip2500_21)">
		<path id="Vector" d="M133.09 41.65L133.09 34.16L128.03 41.65L126.11 41.65L126.11 31.23L128.03 31.23L128.03 38.82L133.09 31.23L135 31.23L135 41.65L133.09 41.65Z" fill="#FBFBFD" fill-opacity="1.000000" fill-rule="nonzero"/>
		<path id="Vector" d="M117.54 40.83C114.39 40.65 112.81 39.18 112.81 36.44C112.81 33.7 114.39 32.24 117.54 32.06L117.54 31.23L119.53 31.23L119.53 32.03C122.68 32.19 124.26 33.66 124.25 36.44C124.25 39.21 122.67 40.68 119.53 40.82L119.53 41.62L117.54 41.62L117.54 40.83ZM119.53 33.73L119.53 39.15C121.31 38.99 122.2 38.08 122.2 36.41C122.2 34.75 121.31 33.86 119.53 33.73ZM117.54 39.14L117.54 33.74C115.75 33.91 114.86 34.81 114.86 36.41C114.87 38.02 115.76 38.93 117.54 39.14Z" fill="#FBFBFD" fill-opacity="1.000000" fill-rule="nonzero"/>
		<path id="Vector" d="M100.62 36.46C100.62 32.93 102.42 31.16 106.01 31.16C109.54 31.16 111.31 32.93 111.31 36.46C111.31 39.99 109.55 41.74 106.01 41.72C102.58 41.72 100.79 39.97 100.62 36.46ZM102.69 36.41C102.69 38.84 103.8 40.05 106.01 40.05C108.17 40.05 109.25 38.83 109.25 36.41C109.25 33.99 108.17 32.8 106.01 32.83C103.79 32.83 102.69 34.02 102.69 36.41Z" fill="#FBFBFD" fill-opacity="1.000000" fill-rule="nonzero"/>
		<path id="Vector" d="M91.61 41.65L91.61 31.23L96.39 31.23C98.57 31.23 99.67 32.21 99.67 34.17C99.67 36.3 98.17 37.58 95.18 38.02L94.9 36.31C96.7 35.99 97.59 35.29 97.59 34.23C97.59 33.36 97.15 32.93 96.26 32.93L93.59 32.93L93.59 41.65L91.61 41.65Z" fill="#FBFBFD" fill-opacity="1.000000" fill-rule="nonzero"/>
		<path id="Vector" d="M79.87 41.65L79.87 31.23L89.35 31.23L89.35 41.65L87.37 41.65L87.37 32.91L81.86 32.91L81.86 41.65L79.87 41.65Z" fill="#FBFBFD" fill-opacity="1.000000" fill-rule="nonzero"/>
		<path id="Vector" d="M121.26 20.38C121.18 16.85 123.05 15.08 126.64 15.08C130.24 15.08 131.94 16.85 131.94 20.38C131.94 23.91 130.17 25.65 126.64 25.65C123.21 25.65 121.34 23.89 121.26 20.38ZM123.32 20.34C123.32 22.76 124.43 23.97 126.64 23.97C128.8 23.97 129.88 22.76 129.88 20.34C129.88 17.92 128.8 16.72 126.64 16.75C124.43 16.75 123.32 17.94 123.32 20.34Z" fill="#FBFBFD" fill-opacity="1.000000" fill-rule="nonzero"/>
		<path id="Vector" d="M109.91 25.57L109.91 15.15L111.89 15.15L111.89 19.38L117.4 19.38L117.4 15.15L119.39 15.15L119.39 25.57L117.4 25.57L117.4 21.06L111.89 21.06L111.89 25.57L109.91 25.57Z" fill="#FBFBFD" fill-opacity="1.000000" fill-rule="nonzero"/>
		<path id="Vector" d="M101.93 20.36L97.71 15.15L100.22 15.15L103.18 18.96L106.14 15.15L108.66 15.15L104.44 20.36L108.66 25.57L106.14 25.57L103.18 21.77L100.22 25.57L97.71 25.57L101.93 20.36Z" fill="#FBFBFD" fill-opacity="1.000000" fill-rule="nonzero"/>
		<path id="Vector" d="M96.71 15.15L96.71 16.82L91.34 16.82L91.34 19.44L96.45 19.44L96.45 21.17L91.31 21.17L91.31 23.9L96.81 23.9L96.81 25.57L89.36 25.57L89.36 15.15L96.71 15.15Z" fill="#FBFBFD" fill-opacity="1.000000" fill-rule="nonzero"/>
		<path id="Vector" d="M88.24 15.15L88.24 16.83L84.49 16.83L84.49 25.57L82.5 25.57L82.5 16.83L78.75 16.83L78.75 15.15L88.24 15.15Z" fill="#FBFBFD" fill-opacity="1.000000" fill-rule="nonzero"/>
		<path id="Vector" d="M62.87 15.15L62.83 41.65L58.35 44.24L58.35 17.77L40.07 7.21L35.56 9.82L53.83 20.37L53.83 46.85L49.31 49.46L49.31 22.98L26.52 9.82L40.07 1.99L62.87 15.15Z" fill="#EBBD00" fill-opacity="1.000000" fill-rule="evenodd"/>
		<path id="Vector" d="M22 17.65L22 12.44L44.79 25.59L44.79 30.8L34.98 25.14L34.98 45.1L30.46 42.49L30.46 22.53L22 17.65Z" fill="#FBFBFD" fill-opacity="1.000000" fill-rule="evenodd"/>
	</g>
</svg>
